<svg width="512" height="512" viewBox="0 0 1024 1024" version="1.1" xmlns="http://www.w3.org/2000/svg">
    <defs>
        <linearGradient id="vertical_blue_grad" x1="0%" y1="0%" x2="0%" y2="100%">
            <stop offset="0%" style="stop-color:#0055D4;stop-opacity:1" />
            <stop offset="100%" style="stop-color:#4ABBFD;stop-opacity:1" />
        </linearGradient>
    </defs>

    <rect x="0" y="0" width="1024" height="1024" rx="220" fill="url(#vertical_blue_grad)"/>

    <path d="M298.666667 362.666667h324.266666l-55.466666-55.466667c-17.066667-17.066667-17.066667-42.666667 0-59.733333s42.666667-17.066667 59.733333 0l128 128c12.8 12.8 17.066667 29.866667 8.533333 46.933333-8.533333 17.066667-21.333333 25.6-38.4 25.6H298.666667c-25.6 0-42.666667-17.066667-42.666667-42.666667s17.066667-42.666667 42.666667-42.666666z m426.666666 298.666666H401.066667l55.466666 55.466667c17.066667 17.066667 17.066667 42.666667 0 59.733333-8.533333 8.533333-21.333333 12.8-29.866666 12.8s-21.333333-4.266667-29.866667-12.8l-128-128c-12.8-12.8-17.066667-29.866667-8.533333-46.933333s21.333333-25.6 38.4-25.6h426.666666c25.6 0 42.666667 17.066667 42.666667 42.666667s-17.066667 42.666667-42.666667 42.666666z" fill="#FFFFFF"/>
</svg>